# xmcd
#
# Track frame offsets:
#	180
#	16920
#	36045
#	59420
#
# Disc length: 1015 seconds
#
# Revision: 0
# Processed by: cddbd v1.5PL3 Copyright (c) Steve Scherf et al.
# Submitted via: dBpowerAMP V4.0
#
DISCID=2903f504
DTITLE=周華健 - 朋友 EP
DYEAR=1997
DGENRE=
TTITLE0=朋友 畢業版
TTITLE1=終於 淒情演奏版
TTITLE2=朋友 萬人大合唱 Kala 版
TTITLE3=朋友畢業版 Kala 版
EXTD=
EXTT0=
EXTT1=
EXTT2=
EXTT3=
PLAYORDER=
